# xmcd CD database file
#
# Track frame offsets:
#	150
#	21150
#	38492
#	59240
#	79772
#	94175
#	115195
#	138245
#	150985
#	174387
#	194825
#	212865
#	238712
#	255825
#	269550
#
# Disc length: 3867 seconds
#
# Revision: 4
# Processed by: cddbd v1.5.1PL2 Copyright (c) Steve Scherf et al.
# Submitted via: CDex 1.51
#
DISCID=ce0f190f
DTITLE=Yanni - Reflections Of Passion
DYEAR=1990
DGENRE=New Age
TTITLE0=After The Sunrise
TTITLE1=The Mermaid
TTITLE2=Quiet Man
TTITLE3=Nostalgia
TTITLE4=Almost A Whisper
TTITLE5=The Rain Must Fall
TTITLE6=Acroyali
TTITLE7=Farewell
TTITLE8=Swept Away
TTITLE9=True Nature
TTITLE10=Secret Vows
TTITLE11=Flight Of Fantasy
TTITLE12=A Word In Private
TTITLE13=First Touch
TTITLE14=Reflections Of Passion
EXTD=YEAR: 1990
EXTT0=
EXTT1=
EXTT2=
EXTT3=
EXTT4=
EXTT5=
EXTT6=
EXTT7=
EXTT8=
EXTT9=
EXTT10=
EXTT11=
EXTT12=
EXTT13=
EXTT14=
PLAYORDER=
